<svg width="92" height="110" viewBox="0 0 92 110" fill="none" xmlns="http://www.w3.org/2000/svg">
<path d="M23.4315 93.3265C22.6439 98.2992 17.4038 100.018 7.7113 98.4828C5.60423 98.1491 4.50685 96.8953 4.41916 94.7215C4.42911 92.4767 4.74111 89.4159 5.35517 85.5389C6.65003 77.3634 9.89543 67.5098 15.0914 55.978C23.7201 36.955 31.4333 26.1674 38.2309 23.6154C39.1538 23.2432 40.121 23.1372 41.1324 23.2973C42.1438 23.4575 42.3891 25.1811 41.8685 28.4682C41.3479 31.7552 40.7188 34.6363 39.9812 37.1113C38.506 42.0615 36.2493 48.3999 33.2112 56.1264C30.2574 63.8663 28.6671 68.4526 28.4401 69.8854L23.4315 93.3265ZM37.4147 60.68C37.5882 59.5843 38.2916 58.9614 39.525 58.8111C40.8426 58.6742 42.4486 58.6262 44.3429 58.667C46.2505 58.6236 48.3467 58.4804 50.6315 58.2375C52.9163 57.9946 55.1126 57.2193 57.2204 55.9116C62.1062 52.884 65.2366 47.0296 66.6115 38.3485C67.4926 32.7858 66.2703 28.2292 62.9448 24.6786C59.7036 21.1413 54.5431 18.812 47.4634 17.6907C40.4679 16.5827 33.6602 17.0165 27.0404 18.9919C24.5912 19.7271 22.3661 20.4115 20.365 21.0449C18.4483 21.6917 16.7313 21.8949 15.2142 21.6546C13.6972 21.4144 13.012 20.8307 13.1589 19.9035C13.3858 18.4707 15.1502 16.3311 18.4522 13.4846C21.7141 10.8909 26.544 8.76159 32.9419 7.09661C39.4241 5.44498 45.9943 5.14645 52.6527 6.20103C65.2241 8.10576 74.5337 12.6041 80.5814 19.6962C85.8221 25.8829 87.7817 33.1482 86.4601 41.4922C85.1519 49.7519 80.9852 56.6949 73.9599 62.3211C66.9479 67.8631 58.9328 69.92 49.9145 68.4916C40.9806 67.0766 36.8139 64.4727 37.4147 60.68Z" fill="#1B1B1B"/>
<path d="M23.4315 93.3265L22.4535 93.1175L22.448 93.1437L22.4438 93.1701L23.4315 93.3265ZM4.41916 94.7215L3.41917 94.7171L3.41907 94.7394L3.41998 94.7618L4.41916 94.7215ZM15.0914 55.978L14.1807 55.5649L14.1796 55.5672L15.0914 55.978ZM38.2309 23.6154L38.5824 24.5516L38.5937 24.5473L38.6049 24.5428L38.2309 23.6154ZM39.9812 37.1113L39.0229 36.8257L39.0229 36.8257L39.9812 37.1113ZM33.2112 56.1264L32.2806 55.7604L32.277 55.7698L33.2112 56.1264ZM28.4401 69.8854L29.418 70.0944L29.4236 70.0682L29.4278 70.0419L28.4401 69.8854ZM39.525 58.8111L39.4217 57.8165L39.4129 57.8174L39.4041 57.8185L39.525 58.8111ZM44.3429 58.667L44.3213 59.6668L44.3435 59.6673L44.3656 59.6668L44.3429 58.667ZM50.6315 58.2375L50.7372 59.2319L50.7372 59.2319L50.6315 58.2375ZM57.2204 55.9116L56.6937 55.0616L56.6933 55.0619L57.2204 55.9116ZM62.9448 24.6786L62.2075 25.3542L62.215 25.3622L62.9448 24.6786ZM27.0404 18.9919L26.7544 18.0336L26.7529 18.0341L27.0404 18.9919ZM20.365 21.0449L20.0633 20.0915L20.0543 20.0944L20.0453 20.0974L20.365 21.0449ZM18.4522 13.4846L17.8298 12.7018L17.8143 12.7142L17.7992 12.7272L18.4522 13.4846ZM32.9419 7.09661L32.695 6.12756L32.69 6.12885L32.9419 7.09661ZM52.6527 6.20103L52.4962 7.18874L52.5028 7.18975L52.6527 6.20103ZM80.5814 19.6962L81.3444 19.0498L81.3423 19.0473L80.5814 19.6962ZM73.9599 62.3211L74.5799 63.1057L74.585 63.1017L73.9599 62.3211ZM22.4438 93.1701C22.2734 94.2455 21.872 95.1005 21.2629 95.7766C20.6499 96.4572 19.7803 97.0074 18.5991 97.3949C16.2056 98.1799 12.6616 98.2544 7.86773 97.4951L7.55486 99.4705C12.4535 100.246 16.3758 100.229 19.2224 99.2953C20.6612 98.8233 21.8551 98.1075 22.7489 97.1152C23.6468 96.1185 24.1957 94.8938 24.4192 93.4829L22.4438 93.1701ZM7.86773 97.4951C6.97914 97.3544 6.41607 97.0399 6.06044 96.6336C5.70284 96.225 5.45583 95.6103 5.41835 94.6812L3.41998 94.7618C3.47018 96.0065 3.8157 97.1056 4.55548 97.9508C5.29722 98.7982 6.33638 99.2775 7.55486 99.4705L7.86773 97.4951ZM5.41915 94.7259C5.42877 92.5561 5.73181 89.5533 6.34285 85.6953L4.36748 85.3824C3.75041 89.2785 3.42945 92.3973 3.41917 94.7171L5.41915 94.7259ZM6.34285 85.6953C7.61854 77.6409 10.8266 67.8775 16.0031 56.3888L14.1796 55.5672C8.96426 67.1422 5.68151 77.0859 4.36748 85.3824L6.34285 85.6953ZM16.0021 56.3911C20.303 46.9092 24.3576 39.5214 28.1613 34.2017C31.9848 28.8542 35.4681 25.7208 38.5824 24.5516L37.8794 22.6792C34.1961 24.062 30.424 27.5984 26.5344 33.0384C22.6249 38.5062 18.5085 46.0238 14.1807 55.5649L16.0021 56.3911ZM38.6049 24.5428C39.3547 24.2404 40.1381 24.1523 40.9759 24.285L41.2888 22.3097C40.1038 22.122 38.9529 22.2459 37.8569 22.6879L38.6049 24.5428ZM40.9759 24.285C40.7796 24.2539 40.9745 24.0756 41.0849 24.8511C41.186 25.5613 41.137 26.6943 40.8808 28.3117L42.8562 28.6246C43.1207 26.9551 43.2093 25.5827 43.065 24.5692C42.93 23.6212 42.4965 22.5009 41.2888 22.3097L40.9759 24.285ZM40.8808 28.3117C40.3653 31.5668 39.7448 34.4031 39.0229 36.8257L40.9396 37.3969C41.6928 34.8695 42.3306 31.9435 42.8562 28.6246L40.8808 28.3117ZM39.0229 36.8257C37.5591 41.7376 35.3137 48.0466 32.2806 55.7605L34.1419 56.4923C37.185 48.7532 39.4529 42.3855 40.9396 37.3969L39.0229 36.8257ZM32.277 55.7698C30.7986 59.6437 29.6584 62.7362 28.8583 65.0434C28.0704 67.3156 27.5824 68.9083 27.4524 69.729L29.4278 70.0419C29.5247 69.4298 29.9454 68.0129 30.7479 65.6987C31.5382 63.4196 32.6701 60.349 34.1455 56.4829L32.277 55.7698ZM27.4622 69.6765L22.4535 93.1175L24.4094 93.5354L29.418 70.0944L27.4622 69.6765ZM38.4023 60.8364C38.4597 60.4744 38.5875 60.2706 38.7354 60.1397C38.8933 59.9998 39.1665 59.8622 39.6459 59.8038L39.4041 57.8185C38.6501 57.9103 37.9549 58.1593 37.4094 58.6424C36.8539 59.1344 36.5432 59.7899 36.427 60.5236L38.4023 60.8364ZM39.6283 59.8058C40.8911 59.6746 42.4526 59.6265 44.3213 59.6668L44.3644 57.6673C42.4446 57.6259 40.7942 57.6739 39.4217 57.8165L39.6283 59.8058ZM44.3656 59.6668C46.3059 59.6226 48.4302 59.4772 50.7372 59.2319L50.5258 57.2431C48.2632 57.4837 46.1951 57.6246 44.3201 57.6673L44.3656 59.6668ZM50.7372 59.2319C53.1832 58.9719 55.5223 58.1419 57.7476 56.7614L56.6933 55.0619C54.7029 56.2967 52.6493 57.0173 50.5258 57.2431L50.7372 59.2319ZM57.7472 56.7616C62.9866 53.5148 66.203 47.3207 67.5992 38.5049L65.6239 38.192C64.2702 46.7385 61.2258 52.2531 56.6937 55.0616L57.7472 56.7616ZM67.5992 38.5049C68.5199 32.6917 67.2461 27.8081 63.6747 23.995L62.215 25.3622C65.2946 28.6503 66.4652 32.8799 65.6239 38.192L67.5992 38.5049ZM63.6821 24.003C60.2288 20.2343 54.8171 17.843 47.6198 16.703L47.3069 18.6784C54.2692 19.7811 59.1784 22.0484 62.2076 25.3542L63.6821 24.003ZM47.6198 16.703C40.4804 15.5722 33.5214 16.0143 26.7544 18.0336L27.3263 19.9501C33.7991 18.0186 40.4554 17.5932 47.3069 18.6784L47.6198 16.703ZM26.7529 18.0341C24.2999 18.7705 22.0699 19.4563 20.0633 20.0915L20.6668 21.9983C22.6623 21.3666 24.8825 20.6838 27.3279 19.9496L26.7529 18.0341ZM20.0453 20.0974C18.2349 20.7083 16.6856 20.8752 15.3707 20.6669L15.0578 22.6423C16.777 22.9146 18.6616 22.6751 20.6848 21.9924L20.0453 20.0974ZM15.3707 20.6669C14.6806 20.5576 14.3464 20.3907 14.2111 20.2754C14.1566 20.229 14.1482 20.2031 14.1467 20.1989C14.1445 20.1926 14.1315 20.1548 14.1466 20.06L12.1712 19.7471C12.0461 20.5368 12.2928 21.2685 12.9141 21.7979C13.4639 22.2663 14.2308 22.5113 15.0578 22.6423L15.3707 20.6669ZM14.1466 20.06C14.2166 19.6179 14.5688 18.8974 15.4239 17.8604C16.2558 16.8516 17.4757 15.6466 19.1051 14.242L17.7992 12.7272C16.1267 14.169 14.8134 15.4571 13.8809 16.588C12.9716 17.6907 12.3281 18.7563 12.1712 19.7471L14.1466 20.06ZM19.0746 14.2673C22.1819 11.7965 26.8605 9.71252 33.1937 8.06438L32.69 6.12885C26.2274 7.81066 21.2463 9.98527 17.8298 12.7018L19.0746 14.2673ZM33.1888 8.06565C39.5381 6.44786 45.9711 6.15524 52.4962 7.18872L52.8091 5.21334C46.0175 4.13766 39.31 4.4421 32.695 6.12757L33.1888 8.06565ZM52.5028 7.18975C64.9233 9.0716 73.9779 13.4935 79.8205 20.3451L81.3423 19.0473C75.0895 11.7148 65.5249 7.13992 52.8025 5.21231L52.5028 7.18975ZM79.8184 20.3426C84.8621 26.2967 86.7506 33.2655 85.4724 41.3357L87.4478 41.6486C88.8127 33.0309 86.7821 25.4691 81.3444 19.0498L79.8184 20.3426ZM85.4724 41.3357C84.2063 49.3298 80.1819 56.057 73.3348 61.5406L74.585 63.1017C81.7885 57.3327 86.0975 50.1739 87.4478 41.6486L85.4724 41.3357ZM73.3398 61.5366C66.5523 66.9012 58.8202 68.8896 50.071 67.5039L49.7581 69.4793C59.0455 70.9503 67.3436 68.8251 74.5799 63.1057L73.3398 61.5366ZM50.071 67.5039C45.6439 66.8027 42.5294 65.8233 40.6191 64.6294C39.6735 64.0385 39.0717 63.425 38.7314 62.8147C38.4003 62.2208 38.2854 61.575 38.4023 60.8364L36.427 60.5236C36.2436 61.6814 36.4242 62.7834 36.9846 63.7886C37.5358 64.7774 38.4214 65.6144 39.5591 66.3255C41.8154 67.7355 45.2513 68.7655 49.7581 69.4793L50.071 67.5039Z" fill="#1B1B1B"/>
</svg>
