<svg id="star-groups" width="1200" height="596" viewBox="0 0 1200 596" fill="none" xmlns="http://www.w3.org/2000/svg">
  <g id="stars-group-1">
    <path id="star_1" d="M502.553 261.922C504.438 261.922 505.967 260.394 505.967 258.508C505.967 256.623 504.438 255.094 502.553 255.094C500.667 255.094 499.139 256.623 499.139 258.508C499.139 260.394 500.667 261.922 502.553 261.922Z" fill="#F3f3f3"/>
    <path id="star_2" d="M314.786 379.703H311.372V381.41H314.786V379.703Z" fill="#F3f3f3"/>
    <path id="star_3" d="M116.778 379.703C118.663 379.703 120.192 378.175 120.192 376.289C120.192 374.404 118.663 372.875 116.778 372.875C114.892 372.875 113.364 374.404 113.364 376.289C113.364 378.175 114.892 379.703 116.778 379.703Z" fill="#F3f3f3"/>
    <path id="star_4" d="M352.34 294.355C354.225 294.355 355.753 292.826 355.753 290.941C355.753 289.055 354.225 287.527 352.34 287.527C350.454 287.527 348.926 289.055 348.926 290.941C348.926 292.826 350.454 294.355 352.34 294.355Z" fill="#FFF"/>
    </g>
  <g id="stars-group-2">
    <path id="star_5" d="M732.33 371.076C733.637 371.076 734.697 370.017 734.697 368.709C734.697 367.402 733.637 366.342 732.33 366.342C731.022 366.342 729.963 367.402 729.963 368.709C729.963 370.017 731.022 371.076 732.33 371.076Z" fill="#FFF"/>
    <path id="star_6" d="M1038.85 257.461C1040.16 257.461 1041.22 256.402 1041.22 255.094C1041.22 253.787 1040.16 252.727 1038.85 252.727C1037.55 252.727 1036.49 253.787 1036.49 255.094C1036.49 256.402 1037.55 257.461 1038.85 257.461Z" fill="#FFF"/>
    <path id="star_7" d="M804.523 166.333H802.156V167.516H804.523V166.333Z" fill="#FFF"/>
    <path id="star_8" d="M322.842 160.415H320.475V161.599H322.842V160.415Z" fill="#FFF"/>
    <path id="star_9" d="M370.773 90.5891C374.368 90.5891 377.282 87.6748 377.282 84.0799C377.282 80.4849 374.368 77.5707 370.773 77.5707C367.178 77.5707 364.264 80.4849 364.264 84.0799C364.264 87.6748 367.178 90.5891 370.773 90.5891Z" fill="#F3f3f3"/>
    <path id="star_10" d="M493.264 295.333H490.897V296.517H493.264V295.333Z" fill="#F3f3f3"/>
  </g>
  <g id="stars-group-3">
    <path id="star_11" d="M745.348 64.5523C746.655 64.5523 747.715 63.4925 747.715 62.1853C747.715 60.878 746.655 59.8183 745.348 59.8183C744.041 59.8183 742.981 60.878 742.981 62.1853C742.981 63.4925 744.041 64.5523 745.348 64.5523Z" fill="#F3f3f3"/>
    <path id="star_12" d="M1061.2 585.294C1061.26 585.348 1061.32 585.404 1061.38 585.455C1061.33 585.392 1061.28 585.331 1061.24 585.265L1061.2 585.294Z" fill="#FF6584"/>
    <path id="star_13" d="M569.008 68.1027C572.276 68.1027 574.925 65.4534 574.925 62.1853C574.925 58.9172 572.276 56.2678 569.008 56.2678C565.74 56.2678 563.09 58.9172 563.09 62.1853C563.09 65.4534 565.74 68.1027 569.008 68.1027Z" fill="#F3f3f3"/>
    <path id="star_14" d="M667.238 234.975C668.545 234.975 669.605 233.915 669.605 232.608C669.605 231.301 668.545 230.241 667.238 230.241C665.93 230.241 664.871 231.301 664.871 232.608C664.871 233.915 665.93 234.975 667.238 234.975Z" fill="#fff"/>
  </g>
</svg>
